# xmcd
#
# Track frame offsets: 
#        150
#        12120
#        29697
#        45625
#        61345
#        75520
#        92235
#        107540
#        123285
#        139143
#        153873
#        168861
#        183691
#        201801
#
# Disc length: 2924 seconds
#
# Revision: 3
# Processed by: cddbd v1.5.2PL0 Copyright (c) Steve Scherf et al.
# Submitted via: ExactAudioCopy v0.95b4
#
DISCID=b00b6a0e
DTITLE=Various Artist - Hot Hits Country Vol. 61
DYEAR=1900
DGENRE=
TTITLE0=Little Bitty - Alan Jackson
TTITLE1=Somebody To Love You - Wynonna
TTITLE2=Pretty Little Adriana - Vince Gill
TTITLE3=Where Corn Don't Grow - Travis Tritt
TTITLE4=I Don't Care If You Love Me Anymore - The Mavericks
TTITLE5=I Wouldn't Be A Man - Billy Dean
TTITLE6=Kings Of The World - Blackhawk
TTITLE7=I Meant To Do That - Paul Brandt
TTITLE8=Every Time She Passes By - George Ducas
TTITLE9=That's How I Got To Memphis - Deryl Dodd
TTITLE10=Politics Religion And Her - Sammy Kershaw
TTITLE11=High Low And In Between - Mark Wills
TTITLE12=All I Do Is Love Her - James Bonamy
TTITLE13=She Wants To Be Wanted Again - Ty Herndon
EXTD=
EXTT0=
EXTT1=
EXTT2=
EXTT3=
EXTT4=
EXTT5=
EXTT6=
EXTT7=
EXTT8=
EXTT9=
EXTT10=
EXTT11=
EXTT12=
EXTT13=
PLAYORDER=
